<svg
  xmlns="http://www.w3.org/2000/svg"
  xmlns:xlink="http://www.w3.org/1999/xlink"
  version="1.1"
  x="0px"
  y="0px"
  viewBox="0 0 32 32"
  style="enable-background: new 0 0 32 32"
  xml:space="preserve"
>
  <g>
    <g>
      <path
        d="M26,28c-3.3085938,0-6-2.6914063-6-6s2.6914063-6,6-6s6,2.6914063,6,6S29.3085938,28,26,28z M26,18    c-2.2060547,0-4,1.7944336-4,4s1.7939453,4,4,4s4-1.7944336,4-4S28.2060547,18,26,18z"
      />
    </g>
    <g>
      <path
        d="M6,28c-3.3085938,0-6-2.6914063-6-6s2.6914063-6,6-6s6,2.6914063,6,6S9.3085938,28,6,28z M6,18    c-2.2060547,0-4,1.7944336-4,4s1.7939453,4,4,4s4-1.7944336,4-4S8.2060547,18,6,18z"
      />
    </g>
    <g>
      <path
        d="M21.8359375,8.6376953h-2.7177734c-0.5527344,0-1-0.4477539-1-1s0.4472656-1,1-1h2.7177734    c0.1757813,0,0.3183594-0.1430664,0.3183594-0.3188477S22.0117188,6,21.8359375,6h-7.2880859c-0.5527344,0-1-0.4477539-1-1    s0.4472656-1,1-1h7.2880859c1.2783203,0,2.3183594,1.0400391,2.3183594,2.3188477S23.1142578,8.6376953,21.8359375,8.6376953z"
      />
    </g>
    <g>
      <path
        d="M26.2080078,23c-0.3681641,0-0.7216797-0.2036133-0.8964844-0.5556641l-8.4375-17    c-0.2460938-0.4946289-0.0439453-1.0947266,0.4511719-1.3398438c0.4941406-0.246582,1.0947266-0.043457,1.3398438,0.4511719    l8.4375,17c0.2460938,0.4946289,0.0439453,1.0947266-0.4511719,1.3398438C26.5087891,22.9667969,26.3574219,23,26.2080078,23z"
      />
    </g>
    <g>
      <path
        d="M17.7695313,22.9604492H6.1425781c-0.3916016,0-0.7470703-0.2285156-0.9091797-0.5844727    c-0.1630859-0.355957-0.1035156-0.7739258,0.1533203-1.0698242l6.1542969-7.1118164    c0.1142578-0.1323242,0.2617188-0.2324219,0.4267578-0.2900391l8.8388672-3.0810547    c0.3583984-0.1245117,0.7587891-0.0356445,1.0302734,0.2314453s0.3681641,0.6650391,0.2480469,1.0263672L18.71875,22.2739258    C18.5839844,22.6835938,18.2011719,22.9604492,17.7695313,22.9604492z M8.3300781,20.9604492h8.7167969l2.5039063-7.5810547    l-6.6728516,2.3256836L8.3300781,20.9604492z"
      />
    </g>
    <g>
      <path
        d="M12.6503906,11.7797852H7.5058594c-0.5527344,0-1-0.4477539-1-1s0.4472656-1,1-1h5.1445313c0.5527344,0,1,0.4477539,1,1    S13.203125,11.7797852,12.6503906,11.7797852z"
      />
    </g>
    <g>
      <path
        d="M17.7705078,22.9604492c-0.3183594,0-0.6308594-0.1513672-0.8251953-0.4331055L9.2539063,11.3466797    c-0.3125-0.4550781-0.1972656-1.0776367,0.2578125-1.390625s1.078125-0.1967773,1.390625,0.2568359L18.59375,21.3935547    c0.3125,0.4550781,0.1972656,1.0776367-0.2578125,1.390625C18.1630859,22.9033203,17.9658203,22.9604492,17.7705078,22.9604492z"
      />
    </g>
  </g>
</svg>
