<svg
  xmlns="http://www.w3.org/2000/svg"
  xmlns:xlink="http://www.w3.org/1999/xlink"
  version="1.1"
  x="0"
  y="0"
  viewBox="0 0 60 60"
  xml:space="preserve"
>
  <path
    x="50%"
    y="50%"
    dominant-baseline="middle"
    text-anchor="middle"
    d="M52.31,27.7h-3.68l-8.4-9.9c-0.99-1.18-2.45-1.85-3.99-1.85H17.13c-2.19,0-4.16,1.38-4.91,3.44L9.18,27.7h-1.5  C6.2,27.7,5,28.9,5,30.38v7.5c0,1.48,1.2,2.69,2.68,2.69h0.84c-0.05-0.32-0.08-0.66-0.08-1c0-3.57,2.9-6.48,6.47-6.48  c3.58,0,6.48,2.91,6.48,6.48c0,0.34-0.03,0.68-0.08,1h17.37c-0.05-0.32-0.08-0.66-0.08-1c0-3.57,2.91-6.48,6.48-6.48  s6.48,2.91,6.48,6.48c0,0.34-0.03,0.68-0.08,1h0.83c1.48,0,2.69-1.21,2.69-2.69v-7.5C55,28.9,53.79,27.7,52.31,27.7z M26.13,27.7  H11.31l2.78-7.63c0.47-1.27,1.69-2.12,3.04-2.12h9V27.7z M28.13,27.7v-9.75h8.11c0.95,0,1.85,0.42,2.47,1.14l7.3,8.61H28.13z"
  />
  <circle cx="45.08" cy="39.57" r="4.48" />
  <ellipse
    transform="matrix(0.9732 -0.2298 0.2298 0.9732 -8.6928 4.4852)"
    cx="14.91"
    cy="39.57"
    rx="4.48"
    ry="4.48"
  />
</svg>
