<svg
  xmlns="http://www.w3.org/2000/svg"
  xmlns:xlink="http://www.w3.org/1999/xlink"
  version="1.1"
  x="0px"
  y="0px"
  viewBox="0 0 30 30"
  style="enable-background: new 0 0 30 30"
  xml:space="preserve"
>
  <g x="50%" y="50%">
    <path
      d="M24.1,15.37c2.08,0,3.77,1.69,3.77,3.77c0,2.08-1.69,3.77-3.77,3.77c-2.08,0-3.77-1.69-3.77-3.77   C20.32,17.06,22.01,15.37,24.1,15.37 M24.1,13.9c-2.9,0-5.24,2.35-5.24,5.24c0,2.9,2.35,5.25,5.24,5.25c2.9,0,5.25-2.35,5.25-5.25   C29.34,16.24,26.99,13.9,24.1,13.9L24.1,13.9z"
    />
    <path
      d="M5.9,15.37c2.08,0,3.77,1.69,3.77,3.77c0,2.08-1.69,3.77-3.77,3.77c-2.08,0-3.77-1.69-3.77-3.77   C2.13,17.06,3.82,15.37,5.9,15.37 M5.9,13.9c-2.9,0-5.24,2.35-5.24,5.24c0,2.9,2.35,5.25,5.24,5.25c2.9,0,5.24-2.35,5.24-5.25   C11.15,16.24,8.8,13.9,5.9,13.9L5.9,13.9z"
    />
    <path
      d="M16.64,19.94H5.9v-1.6h7.41l-3.96-3.96l0.85-0.85H1.54l2.14-2.73H16.2l3.92-2.27l2.86,3.01L16.64,19.94z"
    />
    <polygon
      points="23.61,19.21 22.53,11.79 16.83,6.71 14.6,7.38 14.31,6.44 17.07,5.61 23.45,11.29 24.58,19.07  "
    />
    <path
      d="M22.83,11.93c-0.52,0.07-1.07-0.77-1.23-1.89c-0.16-1.12,0.13-2.09,0.65-2.16c0.52-0.07,1.07,0.77,1.23,1.89   C23.64,10.89,23.35,11.85,22.83,11.93z"
    />
  </g>
</svg>
