<svg
  xmlns="http://www.w3.org/2000/svg"
  xmlns:xlink="http://www.w3.org/1999/xlink"
  version="1.1"
  x="0px"
  y="0px"
  viewBox="0 0 100 100"
  enable-background="new 0 0 100 100"
  xml:space="preserve"
>
  <path
    d="M6.911,60.994h57.345c1.055,0,1.912-0.855,1.912-1.91V27.921c0-3.167-2.567-5.734-5.734-5.734h-49.7  C7.568,22.188,5,24.755,5,27.921v31.163C5,60.139,5.856,60.994,6.911,60.994z"
  />
  <path
    d="M80.898,62.522c-4.223,0-7.645,3.424-7.645,7.646c0,4.223,3.422,7.645,7.645,7.645c4.222,0,7.645-3.422,7.645-7.645  C88.543,65.946,85.12,62.522,80.898,62.522z M80.898,73.088c-1.612,0-2.921-1.307-2.921-2.92s1.309-2.921,2.921-2.921  c1.613,0,2.921,1.308,2.921,2.921S82.512,73.088,80.898,73.088z"
  />
  <path
    d="M20.719,62.522c-4.223,0-7.646,3.424-7.646,7.646c0,4.223,3.423,7.645,7.646,7.645c4.221,0,7.644-3.422,7.644-7.645  C28.362,65.946,24.94,62.522,20.719,62.522z M20.719,73.088c-1.613,0-2.92-1.307-2.92-2.92s1.308-2.921,2.92-2.921  c1.612,0,2.92,1.308,2.92,2.921S22.331,73.088,20.719,73.088z"
  />
  <path
    d="M10.802,69.529c0.149-2.339,1.106-4.457,2.596-6.079c0.286-0.312,0.197-0.544-0.227-0.544h-6.26  C5.856,62.906,5,63.763,5,64.818v2.567c0,2.11,1.711,3.821,3.822,3.821h1.629c0.211,0,0.364-0.171,0.351-0.382  c-0.002-0.016,0-0.031-0.002-0.048c-0.012-0.201-0.021-0.403-0.021-0.609c0-0.191,0.007-0.381,0.018-0.571  C10.798,69.574,10.8,69.553,10.802,69.529z"
  />
  <path
    d="M93.719,63.021L93.71,50.564c0.003-1.056-0.506-2.598-1.133-3.447L81.804,32.549c-0.63-0.849-1.993-1.536-3.049-1.536H71.9  c-2.11,0-3.823,1.711-3.823,3.821v26.927c0,0.633-0.513,1.146-1.146,1.146H28.265c-0.423,0-0.512,0.232-0.226,0.544  c1.489,1.622,2.445,3.739,2.595,6.077c0.002,0.023,0.004,0.047,0.004,0.069c0.012,0.19,0.018,0.38,0.018,0.571  c0,0.202-0.006,0.402-0.02,0.603c0,0.019,0,0.037,0,0.055c-0.014,0.211,0.138,0.382,0.349,0.382h39.647  c0.212,0,0.363-0.171,0.351-0.382c-0.015-0.217-0.021-0.437-0.021-0.657c0-5.489,4.45-9.938,9.938-9.938  c5.489,0,9.938,4.449,9.938,9.938c0,0.221-0.007,0.44-0.021,0.657c-0.015,0.211,0.139,0.382,0.351,0.382h0.011  c2.112,0,3.823-1.711,3.823-3.821v-2.569C95,63.983,94.462,63.281,93.719,63.021z M85.839,48.185c0,0.633-0.514,1.146-1.146,1.146  H74.265c-0.634,0-1.146-0.514-1.146-1.146V37.2c0-0.633,0.513-1.146,1.146-1.146h2.693c0.633,0,1.451,0.413,1.829,0.922l6.369,8.588  c0.377,0.51,0.683,1.303,0.683,1.771V48.185z"
  />
</svg>
